<?xml version="1.0" encoding="UTF-8" standalone="no"?>
<!-- Created with Inkscape (http://www.inkscape.org/) -->

<svg
   width="210mm"
   height="297mm"
   viewBox="0 0 210 297"
   version="1.1"
   id="svg1"
   inkscape:version="1.3 (0e150ed6c4, 2023-07-21)"
   sodipodi:docname="Ewok.svg"
   xmlns:inkscape="http://www.inkscape.org/namespaces/inkscape"
   xmlns:sodipodi="http://sodipodi.sourceforge.net/DTD/sodipodi-0.dtd"
   xmlns="http://www.w3.org/2000/svg"
   xmlns:svg="http://www.w3.org/2000/svg">
  <sodipodi:namedview
     id="namedview1"
     pagecolor="#505050"
     bordercolor="#eeeeee"
     borderopacity="1"
     inkscape:showpageshadow="0"
     inkscape:pageopacity="0"
     inkscape:pagecheckerboard="0"
     inkscape:deskcolor="#505050"
     inkscape:document-units="mm"
     inkscape:zoom="0.5"
     inkscape:cx="-43"
     inkscape:cy="523"
     inkscape:window-width="1920"
     inkscape:window-height="991"
     inkscape:window-x="-9"
     inkscape:window-y="-9"
     inkscape:window-maximized="1"
     inkscape:current-layer="layer1" />
  <defs
     id="defs1" />
  <g
     inkscape:label="Ebene 1"
     inkscape:groupmode="layer"
     id="layer1">
    <ellipse
       style="fill:#2e1800;fill-opacity:1;stroke:none;stroke-width:2.75345;stroke-linecap:round"
       id="path2"
       cx="88.480705"
       cy="79.616226"
       rx="7.4554887"
       ry="6.3644414"
       inkscape:label="Ohr" />
    <path
       id="path1"
       style="fill:#4e2a00;fill-opacity:1;stroke-width:3.08756;stroke-linecap:round"
       d="m 138.10326,167.46302 c 0,31.74362 -9.08167,61.47731 -21.22404,67.96453 -19.266274,10.29325 -36.390787,9.64294 -48.859888,2.3407 -19.322038,-11.31552 -24.551778,-37.78442 -24.551779,-71.33388 -2e-6,-19.94054 8.176779,-41.61301 15.402722,-56.07487 9.706659,-19.426714 22.858052,-33.417609 32.172301,-33.417609 12.567704,0 26.487324,10.470906 30.923894,30.830419 4.74922,21.79427 16.13679,41.24982 16.13679,59.69071 z"
       sodipodi:nodetypes="ssssssss"
       inkscape:label="Body" />
    <circle
       style="fill:#3d2100;fill-opacity:1;stroke:none;stroke-width:2.75345;stroke-linecap:round"
       id="path3"
       cx="79.007416"
       cy="82.740471"
       r="7.2736478"
       inkscape:label="Ohr" />
    <ellipse
       style="fill:#522d00;fill-opacity:1;stroke:none;stroke-width:1.36505;stroke-linecap:round"
       id="circle19"
       cx="105.32403"
       cy="51.975868"
       inkscape:label="Ohr"
       rx="4.0139561"
       ry="3.2394609"
       transform="matrix(0.94624433,0.32345274,-0.39539873,0.91850958,0,0)" />
    <path
       id="rect3"
       style="fill:#4e2a00;fill-opacity:1;stroke:none;stroke-width:2.75345;stroke-linecap:round"
       d="m 72.989918,233.29574 c 0.611533,11.6315 -1.802893,59.05377 9.802482,59.05376 2.932636,0 29.99989,1.90905 29.96977,-1.53377 -0.0641,-7.32536 -6.88219,-6.90254 -8.80149,-11.24945 -6.402403,-14.50045 5.35362,-34.7541 6.62613,-46.5277 3.65952,-33.85869 -38.705047,-20.82003 -37.596892,0.25716 z"
       sodipodi:nodetypes="ssssss"
       inkscape:label="Bein" />
    <path
       id="path5"
       style="fill:#000000;fill-opacity:0.18000001;stroke-width:2;stroke-linecap:round"
       d="M 73.106132 240.27681 C 73.19276 257.45859 72.795942 292.34961 82.792362 292.3496 C 83.350875 292.3496 85.397864 292.44921 87.399833 292.54028 C 79.1125 278.52513 80.002782 259.41899 82.570154 242.86735 C 79.23093 242.35808 76.060112 241.48741 73.106132 240.27681 z " />
    <path
       id="path4"
       style="fill:#995200;fill-opacity:1;stroke:none;stroke-width:2.75345;stroke-linecap:round"
       d="m 91.042466,76.941794 c -9.314221,-1.3e-5 -22.46555,13.991267 -32.172189,33.417926 -6.392903,12.79463 -13.518431,31.23177 -15.079046,49.12163 l 11.724805,5.48948 34.531318,35.58448 24.594146,-36.40314 20.38597,-15.29695 c -1.61337,-5.59993 -3.69641,-11.35171 -5.78546,-17.22903 -3.02303,1.41127 -9.22751,1.50812 -12.56375,1.51211 -12.64042,2.4e-4 -22.073278,-12.06511 -20.79668,-22.34161 1.262844,-10.16575 7.6388,-19.144495 17.4988,-21.922566 -6.24799,-7.902484 -14.550304,-11.93233 -22.337914,-11.93233 z"
       sodipodi:nodetypes="sscccccccscs"
       inkscape:label="Cloth" />
    <circle
       style="fill:#000000;fill-opacity:1;stroke:none;stroke-width:5.0843;stroke-linecap:round"
       id="circle11"
       cx="115.61288"
       cy="105.702"
       r="5.223382" />
    <circle
       style="fill:#ffffff;fill-opacity:1;stroke:none;stroke-width:1.51165;stroke-linecap:round"
       id="circle12"
       cx="117.60905"
       cy="103.9634"
       r="1.5530083" />
    <path
       id="path12"
       style="fill:#4f1c00;stroke-width:2.75345;stroke-linecap:round"
       d="m 127.0307,114.57516 c -0.9015,2.91515 -2.69017,4.52401 -4.28006,4.46217 -1.65548,-0.0644 -3.7005,-1.99779 -4.28003,-4.46217 -0.56415,-2.39896 1.91624,-3.23872 4.28003,-3.23872 2.36382,0 5.00814,0.88434 4.28006,3.23872 z"
       sodipodi:nodetypes="sssss" />
    <rect
       style="fill:#000000;fill-opacity:1;stroke:none;stroke-width:1.2553;stroke-linecap:round"
       id="rect15"
       width="6.080617"
       height="1.5695357"
       x="90.746597"
       y="156.70171"
       ry="0.65664345"
       transform="matrix(0.94691873,-0.32147305,0.22017918,0.97545945,0,0)" />
    <rect
       style="fill:#ffffff;fill-opacity:1;stroke-width:0.608297;stroke-linecap:round"
       id="rect1"
       width="1.0076934"
       height="1.1361651"
       x="104.48888"
       y="149.14594"
       ry="0.24280901"
       transform="matrix(0.97158423,-0.23669407,0.14464058,0.98948426,0,0)" />
    <rect
       style="fill:#ffffff;fill-opacity:1;stroke-width:0.512733;stroke-linecap:round"
       id="rect2"
       width="0.71986151"
       height="1.1299832"
       x="114.68208"
       y="161.26709"
       ry="0.24148786"
       transform="matrix(0.9435133,-0.33133464,0.10088991,0.9948976,0,0)" />
    <path
       id="rect13"
       style="fill:#451900;stroke-width:1.33233;stroke-linecap:round;fill-opacity:1"
       d="m 121.17443,124.31447 c 1.75559,0.19809 5.10997,-1.40719 5.10997,-1.40719 0.36428,-0.10037 0.73893,0.13561 0.7724,0.51193 l 0.034,0.38312 c 0.0336,0.37637 -0.18125,0.76678 -0.55304,0.83443 l -5.29797,0.96453 c -0.37174,0.0677 -0.99541,-0.26624 -1.04839,-0.64037 l -0.14651,-1.03492 c -0.0526,-0.37422 0.66616,0.34054 1.044,0.34248 0,0 0.0534,0.0424 0.0855,0.046 z"
       sodipodi:nodetypes="assssssssa" />
    <path
       id="rect14"
       style="fill:#4f1c00;stroke-width:1.32719;stroke-linecap:round"
       d="m 120.84473,122.67022 4.56818,-1.17255 c 0.36334,-0.0932 1.02469,0.11964 1.11271,0.48688 0.10656,0.44484 -0.0574,0.57067 -0.346,0.66419 0,0 -4.87401,1.20978 -4.95954,1.60719 -0.0923,0.42873 -1.22367,-0.15712 -1.20218,-0.53436 l 0.0234,-0.41256 c 0.0215,-0.37725 0.44034,-0.54565 0.80369,-0.63893 z"
       sodipodi:nodetypes="sssssssss" />
    <g
       id="g27"
       inkscape:label="Speer"
       transform="matrix(1.3766433,0.01520882,-0.01520882,1.3766433,101.0029,-37.317302)"
       inkscape:transform-center-x="-67.267506"
       inkscape:transform-center-y="-22.946635">
      <path
         id="rect19"
         style="fill:#3e2100;fill-opacity:1;stroke-width:1.79774;stroke-linecap:round"
         d="m 41.414444,42.28204 c 1.385,0 2.5,1.115 2.5,2.5 v 195 c 0,1.385 -0.817344,1.90469 -2.5,1.6401 -1.368189,-0.21513 -2.5,-0.2551 -2.5,-1.6401 v -195 c 0,-1.385 1.115,-2.5 2.5,-2.5 z"
         sodipodi:nodetypes="sssssss" />
      <path
         id="path29"
         style="fill:#371d00;fill-opacity:1;stroke-width:1.79774;stroke-linecap:round"
         d="M 40.344526 42.541817 C 39.503645 42.943595 38.914304 43.784742 38.914304 44.782119 L 38.914308 239.78188 C 38.914308 240.36276 39.121421 240.69986 39.453536 240.9197 C 40.495161 240.86468 41.025437 240.33052 41.025437 239.23753 L 41.025429 44.237393 C 41.025429 43.577042 40.759878 42.987825 40.344526 42.541817 z " />
      <path
         style="fill:#776f66;fill-opacity:1;stroke:none;stroke-width:2.23404;stroke-linecap:round"
         d="M 40.881858,46.585077 46.419881,43.136875 41.92677,26.940768 36.388746,42.823402 Z"
         id="path19" />
      <path
         id="path21"
         style="fill:#a2723b;fill-opacity:1;stroke:none;stroke-width:2;stroke-linecap:round"
         d="m 39.719023,42.963269 c -0.122588,0.114153 -0.206798,0.255515 -0.304375,0.392224 0.01376,0.01204 0.02734,0.0245 0.04134,0.03617 0.04938,0.04115 0.114624,0.05976 0.165364,0.09922 0.11076,0.08615 0.192784,0.204437 0.297656,0.297657 0.385456,0.342632 -0.150245,-0.168029 0.297657,0.198437 0.156866,0.128344 0.274246,0.300197 0.429948,0.429948 0.04938,0.04116 0.113374,0.06141 0.165364,0.09922 0.223774,0.162745 0.410592,0.35977 0.628386,0.529166 0.180101,0.140078 0.385934,0.255832 0.562239,0.396875 0.06087,0.0487 0.107425,0.113215 0.165365,0.165365 0.116742,0.105066 0.24569,0.196416 0.363802,0.297656 0.04735,0.04058 0.0812,0.09653 0.132291,0.132292 0.06058,0.04241 0.136908,0.0582 0.198438,0.09922 0.07164,0.04776 0.128098,0.115704 0.198437,0.165364 0.275566,0.194517 0.557957,0.343666 0.853695,0.492477 v -0.237712 z" />
      <path
         id="path26"
         style="fill:#6a625a;fill-opacity:1;stroke:none;stroke-width:2;stroke-linecap:round"
         d="m 41.933875,26.966829 -1.051099,19.617924 5.53713,-3.447851 z" />
      <path
         id="rect24"
         style="fill:#615852;fill-opacity:1;stroke:none;stroke-width:2;stroke-linecap:round"
         d="m 33.525575,36.874056 -0.694829,1.021841 -5.8e-5,16.041728 0.843417,-0.25658 z"
         transform="rotate(-14.999391)" />
      <path
         id="path25"
         style="fill:#6e665e;fill-opacity:1;stroke:none;stroke-width:2;stroke-linecap:round"
         d="m 41.911654,26.983366 -5.522661,15.83986 0.708484,0.593245 5.176945,-15.22181 -0.233061,-0.839225 z" />
      <path
         id="path22"
         style="fill:#a2723b;fill-opacity:1;stroke:none;stroke-width:2;stroke-linecap:round"
         d="m 45.919678,41.334428 -6.368604,4.136182 0.326079,0.273368 c 0.01989,-0.0063 0.03938,-0.01366 0.05788,-0.02325 0.05536,-0.02871 0.09654,-0.07971 0.148828,-0.113688 0.130437,-0.08477 0.270392,-0.158268 0.399976,-0.247013 0.06431,-0.04405 0.118753,-0.101871 0.185518,-0.14211 0.193373,-0.11655 0.412773,-0.20427 0.609782,-0.319361 0.23824,-0.13918 0.449691,-0.310035 0.692981,-0.441833 0.05652,-0.03062 0.122353,-0.0422 0.176733,-0.07648 0.17146,-0.108074 0.310747,-0.262962 0.483175,-0.369487 0.492338,-0.304168 -0.106382,0.131686 0.320911,-0.157096 0.116255,-0.07857 0.213188,-0.18502 0.334346,-0.255798 0.0555,-0.03242 0.12287,-0.04221 0.17725,-0.07648 0.254961,-0.160705 0.482177,-0.378954 0.710035,-0.573092 0.295448,-0.251725 0.679337,-0.557022 1.003039,-0.767395 0.04622,-0.03003 0.100403,-0.04712 0.144177,-0.08062 0.20198,-0.154528 0.387136,-0.348923 0.570508,-0.524516 0.02388,-0.02286 0.0503,-0.04255 0.07752,-0.0615 z" />
      <path
         id="rect23"
         style="fill:#a2723b;fill-opacity:1;stroke:none;stroke-width:1.79774;stroke-linecap:round"
         d="m 43.229919,43.081608 -4.315498,2.802413 v 0.306441 c 0.199958,-0.07555 0.396743,-0.157317 0.592728,-0.259932 0.07628,-0.03995 0.140759,-0.100088 0.218075,-0.137976 0.0664,-0.03254 0.144157,-0.03778 0.209806,-0.07183 0.05536,-0.02871 0.09654,-0.07971 0.148828,-0.113688 0.130437,-0.08477 0.270392,-0.158268 0.399976,-0.247013 0.06431,-0.04405 0.118753,-0.101871 0.185518,-0.14211 0.193373,-0.11655 0.412773,-0.20427 0.609782,-0.319361 0.23824,-0.13918 0.449691,-0.310035 0.692981,-0.441833 0.05652,-0.03062 0.122353,-0.0422 0.176733,-0.07648 0.17146,-0.108074 0.310747,-0.262962 0.483175,-0.369487 0.492338,-0.304168 -0.106382,0.131686 0.320911,-0.157096 0.116255,-0.07857 0.213188,-0.18502 0.334346,-0.255798 0.0555,-0.03242 0.12287,-0.04221 0.17725,-0.07648 0.01436,-0.0091 0.02818,-0.01902 0.04237,-0.02842 -0.08743,-0.141601 -0.163898,-0.290513 -0.276986,-0.411344 z" />
      <path
         id="path23"
         style="fill:#a2723b;fill-opacity:1;stroke:none;stroke-width:2;stroke-linecap:round"
         d="m 37.117114,40.734981 -0.04961,0.14211 c 0.02399,0.0352 0.0481,0.06992 0.07338,0.100253 0.04991,0.05989 0.116665,0.104494 0.165365,0.165364 0.158601,0.198252 0.316268,0.415487 0.496094,0.595313 0.03897,0.03898 0.09044,0.06335 0.132291,0.09922 0.293116,0.251242 0.633315,0.604464 0.892969,0.892968 0.200252,0.222504 0.396857,0.46852 0.628386,0.661459 0.04938,0.04115 0.114624,0.05976 0.165364,0.09922 0.11076,0.08615 0.192784,0.204437 0.297656,0.297657 0.385456,0.342632 -0.150245,-0.168029 0.297657,0.198437 0.156866,0.128344 0.274246,0.300197 0.429948,0.429948 0.04938,0.04116 0.113374,0.06141 0.165364,0.09922 0.223774,0.162745 0.410592,0.35977 0.628386,0.529166 0.180101,0.140078 0.385934,0.255832 0.562239,0.396875 0.06087,0.0487 0.107425,0.113215 0.165365,0.165365 0.03919,0.03527 0.08088,0.0677 0.121956,0.100769 l 0.366903,-0.22841 z" />
    </g>
    <g
       id="g28"
       inkscape:label="Arm"
       transform="matrix(0.01548542,-1.3766402,1.3766402,0.01548542,-94.680947,301.69464)">
      <path
         id="path15"
         style="fill:#4f2b00;fill-opacity:1;stroke:none;stroke-width:2;stroke-linecap:round"
         d="m 99.709917,139.65039 c 0.444193,8.44866 0.694033,37.43858 7.120133,42.8943 2.25875,1.91766 6.16673,4.38511 11.59614,4.44355 5.18659,0.0558 8.55054,-2.15109 8.53984,-5.19644 -0.0526,-5.3208 -1.63881,-5.68812 -3.91828,-9.74841 -4.06816,-7.24635 -1.78699,-21.0345 -0.86269,-29.58637 2.65813,-24.59361 -23.280063,-18.11626 -22.475143,-2.80663 z"
         sodipodi:nodetypes="ssscsss"
         inkscape:label="Arm"
         inkscape:transform-center-x="-2.309529"
         inkscape:transform-center-y="23.573172" />
      <path
         id="path16"
         style="fill:#995200;fill-opacity:1;stroke:none;stroke-width:2;stroke-linecap:round"
         d="m 112.77296,126.06311 c -6.37041,-0.18648 -13.490897,5.45405 -13.063284,13.58728 0.0025,0.0484 0.0068,0.16784 0.0093,0.21756 l 4.689874,1.71234 5.79011,8.57075 12.1176,-9.43767 c 0.57073,-10.25052 -4.21757,-14.49436 -9.5436,-14.65026 z"
         inkscape:transform-center-x="1.5541984"
         inkscape:transform-center-y="6.4517428"
         sodipodi:nodetypes="scccccss" />
    </g>
    <path
       id="path18"
       style="fill:#000000;fill-opacity:0.125731;stroke:none;stroke-width:2.75345;stroke-linecap:round"
       d="m 127.04579,113.19056 c -1.97866,2.2604 -3.67566,3.89921 -6.50119,4.82998 0.7091,0.61378 1.49348,0.98892 2.2062,1.01666 1.58988,0.0618 3.37854,-1.54703 4.28004,-4.46218 0.1656,-0.53548 0.15528,-0.99417 0.0149,-1.38446 z" />
    <path
       id="path28"
       style="fill:#000000;fill-opacity:0.12;stroke:none;stroke-width:2;stroke-linecap:round"
       d="M 43.481584 165.87825 C 43.480192 166.06299 43.467631 166.24983 43.467631 166.43429 C 43.467632 199.98371 48.697085 226.45292 68.019104 237.76843 C 72.86687 240.60741 78.466449 242.49759 84.607756 243.13503 C 93.229295 241.80194 101.61466 240.49847 108.65383 239.3859 C 111.3561 238.30032 114.09773 237.00609 116.87917 235.42749 C 117.04167 235.33526 117.1935 235.23355 117.35356 235.13914 C 79.581749 230.27807 51.972397 204.84868 43.481584 165.87825 z " />
    <path
       id="path6"
       style="fill:#000000;fill-opacity:0.12;stroke-width:2;stroke-linecap:round"
       d="M 91.042505 76.941557 C 81.728293 76.941544 68.576938 90.933032 58.870308 110.35967 C 52.477412 123.15429 45.351739 141.59138 43.791125 159.48122 L 47.79915 161.35811 C 57.152679 135.4781 69.150074 105.78622 102.70174 79.9021 C 98.897664 77.93658 94.907025 76.941557 91.042505 76.941557 z " />
  </g>
</svg>
