<?xml version="1.0" encoding="UTF-8" standalone="no"?>
<!-- Created with Inkscape (http://www.inkscape.org/) -->

<svg
   width="100"
   height="100"
   viewBox="0 0 100 100"
   version="1.1"
   id="svg1"
   inkscape:version="1.3 (0e150ed6c4, 2023-07-21)"
   sodipodi:docname="Glurak.svg"
   xmlns:inkscape="http://www.inkscape.org/namespaces/inkscape"
   xmlns:sodipodi="http://sodipodi.sourceforge.net/DTD/sodipodi-0.dtd"
   xmlns="http://www.w3.org/2000/svg"
   xmlns:svg="http://www.w3.org/2000/svg">
  <sodipodi:namedview
     id="namedview1"
     pagecolor="#505050"
     bordercolor="#eeeeee"
     borderopacity="1"
     inkscape:showpageshadow="0"
     inkscape:pageopacity="0"
     inkscape:pagecheckerboard="0"
     inkscape:deskcolor="#505050"
     inkscape:document-units="px"
     inkscape:zoom="6.9599027"
     inkscape:cx="21.839386"
     inkscape:cy="42.744851"
     inkscape:window-width="1920"
     inkscape:window-height="991"
     inkscape:window-x="-9"
     inkscape:window-y="-9"
     inkscape:window-maximized="1"
     inkscape:current-layer="layer1" />
  <defs
     id="defs1" />
  <g
     inkscape:label="Ebene 1"
     inkscape:groupmode="layer"
     id="layer1">
    <ellipse
       style="fill:#000000;fill-opacity:0.446809;stroke-width:0.930722;stroke-linecap:round"
       id="ellipse60"
       cx="46.734993"
       cy="83.067154"
       rx="30.25445"
       ry="6.312079"
       transform="rotate(-2.8529525)" />
    <path
       d="m 49.837654,25.981357 5.024864,1.284946 c 1.205621,0.236425 1.888503,-0.608686 0.967104,-0.967105 l -6.19909,-2.804912"
       style="fill:#cf621c;fill-opacity:1;stroke-width:1.54157;stroke-linecap:round"
       id="path1"
       sodipodi:nodetypes="cccc" />
    <g
       id="g50"
       inkscape:label="Flügel"
       transform="matrix(0.40787328,0,0,0.40787328,112.60632,28.22468)">
      <path
         style="fill:#004a53;stroke-width:3.77953;stroke-linecap:round"
         d="m -205.25,9.75 -34.75,2.75 -2.53516,2.535156 3.11914,-1.677734 26.65068,50.871169 c 0.1369,-0.36022 0.57915,-1.469856 0.72628,-1.816482 0.25169,-0.592956 0.51668,-1.167237 0.79687,-1.720703 0.28019,-0.553466 0.574,-1.08722 0.88086,-1.601562 0.30687,-0.514343 0.62728,-1.00879 0.95899,-1.484375 0.3317,-0.475586 0.67458,-0.931946 1.02929,-1.369141 0.35472,-0.437194 0.72176,-0.854737 1.09766,-1.253906 0.37589,-0.39917 0.76101,-0.779114 1.15625,-1.140625 0.39524,-0.361511 0.80013,-0.705079 1.21289,-1.029297 0.41276,-0.324218 0.83327,-0.630677 1.26172,-0.917969 0.42844,-0.287292 0.86434,-0.555908 1.30664,-0.80664 0.4423,-0.250733 0.89138,-0.482728 1.3457,-0.697266 0.45433,-0.214538 0.91439,-0.411133 1.37891,-0.589844 0.46452,-0.178711 0.93337,-0.339172 1.40625,-0.482422 0.47288,-0.143249 0.95028,-0.268799 1.42969,-0.376953 0.47941,-0.108154 0.9612,-0.200012 1.44531,-0.273437 0.48411,-0.07343 0.97005,-0.128907 1.45703,-0.167969 0.48698,-0.03906 0.97487,-0.06134 1.46289,-0.06641 0.48802,-0.0051 0.97567,0.0066 1.46289,0.03516 0.48722,0.02856 0.97439,0.07489 1.45899,0.136719 0.48459,0.06183 0.96712,0.139648 1.44726,0.234375 0.48014,0.09473 0.95779,0.206726 1.43164,0.333984 0.47386,0.127258 0.94442,0.270264 1.41016,0.429688 0.46574,0.159423 0.92702,0.334167 1.38281,0.52539 0.45579,0.191223 0.9056,0.398438 1.34961,0.621094 0.44401,0.222656 0.8821,0.461121 1.3125,0.714844 0.4304,0.253723 0.85262,0.522217 1.26758,0.80664 0.41496,0.284424 0.82302,0.58368 1.2207,0.898438 0.39769,0.314758 0.78548,0.645508 1.16406,0.990234 0.37858,0.344726 0.74783,0.703797 1.10547,1.078125 0.35765,0.374328 0.70419,0.764405 1.03907,1.167969 0.33487,0.403564 0.65651,0.821473 0.96679,1.253906 0.31028,0.432434 0.60873,0.878907 0.89258,1.339844 l 6,-18.25 c 0,0 -1.34375,-0.406251 -3.36719,-1.035156 -2.02343,-0.628906 -4.72656,-1.48047 -7.44531,-2.371094 -1.35937,-0.445312 -2.72363,-0.899903 -4.00781,-1.341797 -1.28418,-0.441894 -2.48828,-0.871094 -3.53125,-1.263672 -1.04297,-0.392577 -1.92285,-0.749512 -2.5586,-1.046875 -0.31787,-0.148681 -0.57483,-0.282165 -0.75976,-0.398437 C -189.35486,33.176697 -189.46875,33.078125 -189.5,33 c -0.0625,-0.15625 -0.35547,-0.636231 -0.82031,-1.357422 -0.46485,-0.721191 -1.10157,-1.683595 -1.85156,-2.802734 -1.5,-2.238279 -3.45313,-5.105472 -5.39063,-7.933594 C -201.4375,15.250006 -205.25,9.75 -205.25,9.75 Z"
         id="path45"
         sodipodi:nodetypes="cccccsssssssssssssssssssssssssssssssccssssssssssc" />
      <path
         id="path47"
         style="fill:#005964;fill-opacity:1;stroke-width:3.77953;stroke-linecap:round"
         d="m -239.41602,13.357422 -3.11914,1.677734 L -258,30.5 -259.42773,68.328125 -259.5,70.25 c 0.0762,-0.533246 0.18022,-1.034271 0.27539,-1.544922 0.0577,-0.309814 0.10147,-0.635944 0.16602,-0.9375 0.17093,-0.798595 0.36509,-1.569286 0.58203,-2.310547 0.21694,-0.74126 0.45638,-1.453906 0.71679,-2.138672 0.26042,-0.684764 0.5424,-1.341594 0.84375,-1.970703 0.30136,-0.629108 0.62118,-1.230396 0.96094,-1.804687 0.33976,-0.574292 0.69859,-1.120312 1.07422,-1.640625 0.37563,-0.520314 0.76876,-1.015248 1.17774,-1.482422 0.40896,-0.467175 0.83365,-0.90739 1.27343,-1.322266 0.43978,-0.414875 0.89523,-0.804553 1.36328,-1.167968 0.46806,-0.363415 0.94957,-0.700879 1.44336,-1.013672 0.4938,-0.312795 0.99863,-0.600269 1.51563,-0.863282 0.517,-0.263012 1.0463,-0.500774 1.58398,-0.714843 0.53768,-0.214071 1.08481,-0.404346 1.64063,-0.570313 0.55582,-0.165967 1.11997,-0.309031 1.6914,-0.427734 0.57143,-0.118703 1.14987,-0.212878 1.73438,-0.285156 0.58451,-0.07228 1.17448,-0.121745 1.76953,-0.148438 0.59505,-0.02669 1.19381,-0.03173 1.79688,-0.01367 0.60305,0.01805 1.20981,0.05913 1.81835,0.121094 0.60854,0.06196 1.22055,0.144971 1.83204,0.25 0.61148,0.105029 1.22208,0.231649 1.83398,0.378906 0.6119,0.147257 1.22421,0.315261 1.83398,0.503906 0.60978,0.188647 1.21715,0.397758 1.82227,0.626954 0.60512,0.229196 1.20871,0.479139 1.80664,0.748046 0.59794,0.268908 1.19108,0.557455 1.7793,0.865235 0.58821,0.307778 1.17013,0.634657 1.74609,0.980469 0.57596,0.345812 1.14586,0.710745 1.70703,1.09375 0.56118,0.383005 1.11435,0.783766 1.65821,1.203124 0.54385,0.41936 1.07755,0.857627 1.60156,1.3125 0.524,0.454875 1.03939,0.926467 1.54101,1.416016 0.50163,0.48955 0.9901,0.996146 1.4668,1.519531 0.47671,0.523386 0.94137,1.064712 1.39063,1.621094 0.44925,0.556383 0.88346,1.128257 1.30273,1.716797 -6.72107,-17.032387 -17.7687,-34.349659 -26.66602,-50.892578 z" />
      <path
         id="path49"
         style="fill:#005964;fill-opacity:1;stroke-width:3.77953;stroke-linecap:round"
         d="m -193.10156,28.214844 -6.62501,21.630859 c 8.1011,-3.216124 17.14456,-1.260961 24.36719,6.560547 0.11262,0.121962 0.20323,0.265852 0.30665,0.396484 l 2.24023,0.105469 L -167.5,40.75 c 0,0 -1.34375,-0.406253 -3.36719,-1.035156 -1.4735,-0.457983 -3.48393,-1.103328 -5.42187,-1.726563 L -189.5,35.0625 Z"
         sodipodi:nodetypes="ccscccsccc" />
      <path
         id="path38"
         style="fill:#cf621c;fill-opacity:1;stroke-width:3.77953;stroke-linecap:round"
         d="m -202.39438,0.60485603 c -0.61455,-0.10606129 -1.59911,0.28186339 -1.90445,0.95178457 l -2.51953,5.3808594 -34.25391,2.7539062 c 0,0 -19.55859,19.2636728 -19.55859,20.2636718 0,0.999999 1.08984,41.75 1.08984,41.75 l 2.66016,-41.25 L -239.25,13.5 -207,11.75 l 17.25,23.5 23.5,5.75 2,-6 -7.75,-1.75 -4.25,1.75 -11.5,-3.5 -16.03516,-23.6914062 2.23633,-5.8769532 c 0.36303,-0.7787146 0.0444,-1.17319892 -0.84555,-1.32678457 z"
         sodipodi:nodetypes="scccsccccccccccccs" />
    </g>
    <g
       id="g53"
       inkscape:label="Flügel"
       transform="matrix(-0.40787328,0,0,0.40787328,-13.642662,27.373944)">
      <path
         style="fill:#004a53;stroke-width:3.77953;stroke-linecap:round"
         d="m -205.25,9.75 -34.75,2.75 -2.53516,2.535156 3.11914,-1.677734 26.65068,50.871169 c 0.1369,-0.36022 0.57915,-1.469856 0.72628,-1.816482 0.25169,-0.592956 0.51668,-1.167237 0.79687,-1.720703 0.28019,-0.553466 0.574,-1.08722 0.88086,-1.601562 0.30687,-0.514343 0.62728,-1.00879 0.95899,-1.484375 0.3317,-0.475586 0.67458,-0.931946 1.02929,-1.369141 0.35472,-0.437194 0.72176,-0.854737 1.09766,-1.253906 0.37589,-0.39917 0.76101,-0.779114 1.15625,-1.140625 0.39524,-0.361511 0.80013,-0.705079 1.21289,-1.029297 0.41276,-0.324218 0.83327,-0.630677 1.26172,-0.917969 0.42844,-0.287292 0.86434,-0.555908 1.30664,-0.80664 0.4423,-0.250733 0.89138,-0.482728 1.3457,-0.697266 0.45433,-0.214538 0.91439,-0.411133 1.37891,-0.589844 0.46452,-0.178711 0.93337,-0.339172 1.40625,-0.482422 0.47288,-0.143249 0.95028,-0.268799 1.42969,-0.376953 0.47941,-0.108154 0.9612,-0.200012 1.44531,-0.273437 0.48411,-0.07343 0.97005,-0.128907 1.45703,-0.167969 0.48698,-0.03906 0.97487,-0.06134 1.46289,-0.06641 0.48802,-0.0051 0.97567,0.0066 1.46289,0.03516 0.48722,0.02856 0.97439,0.07489 1.45899,0.136719 0.48459,0.06183 0.96712,0.139648 1.44726,0.234375 0.48014,0.09473 0.95779,0.206726 1.43164,0.333984 0.47386,0.127258 0.94442,0.270264 1.41016,0.429688 0.46574,0.159423 0.92702,0.334167 1.38281,0.52539 0.45579,0.191223 0.9056,0.398438 1.34961,0.621094 0.44401,0.222656 0.8821,0.461121 1.3125,0.714844 0.4304,0.253723 0.85262,0.522217 1.26758,0.80664 0.41496,0.284424 0.82302,0.58368 1.2207,0.898438 0.39769,0.314758 0.78548,0.645508 1.16406,0.990234 0.37858,0.344726 0.74783,0.703797 1.10547,1.078125 0.35765,0.374328 0.70419,0.764405 1.03907,1.167969 0.33487,0.403564 0.65651,0.821473 0.96679,1.253906 0.31028,0.432434 0.60873,0.878907 0.89258,1.339844 l 6,-18.25 c 0,0 -1.34375,-0.406251 -3.36719,-1.035156 -2.02343,-0.628906 -4.72656,-1.48047 -7.44531,-2.371094 -1.35937,-0.445312 -2.72363,-0.899903 -4.00781,-1.341797 -1.28418,-0.441894 -2.48828,-0.871094 -3.53125,-1.263672 -1.04297,-0.392577 -1.92285,-0.749512 -2.5586,-1.046875 -0.31787,-0.148681 -0.57483,-0.282165 -0.75976,-0.398437 C -189.35486,33.176697 -189.46875,33.078125 -189.5,33 c -0.0625,-0.15625 -0.35547,-0.636231 -0.82031,-1.357422 -0.46485,-0.721191 -1.10157,-1.683595 -1.85156,-2.802734 -1.5,-2.238279 -3.45313,-5.105472 -5.39063,-7.933594 C -201.4375,15.250006 -205.25,9.75 -205.25,9.75 Z"
         id="path50"
         sodipodi:nodetypes="cccccsssssssssssssssssssssssssssssssccssssssssssc" />
      <path
         id="path51"
         style="fill:#005964;fill-opacity:1;stroke-width:3.77953;stroke-linecap:round"
         d="m -239.41602,13.357422 -3.11914,1.677734 L -258,30.5 -259.42773,68.328125 -259.5,70.25 c 0.0762,-0.533246 0.18022,-1.034271 0.27539,-1.544922 0.0577,-0.309814 0.10147,-0.635944 0.16602,-0.9375 0.17093,-0.798595 0.36509,-1.569286 0.58203,-2.310547 0.21694,-0.74126 0.45638,-1.453906 0.71679,-2.138672 0.26042,-0.684764 0.5424,-1.341594 0.84375,-1.970703 0.30136,-0.629108 0.62118,-1.230396 0.96094,-1.804687 0.33976,-0.574292 0.69859,-1.120312 1.07422,-1.640625 0.37563,-0.520314 0.76876,-1.015248 1.17774,-1.482422 0.40896,-0.467175 0.83365,-0.90739 1.27343,-1.322266 0.43978,-0.414875 0.89523,-0.804553 1.36328,-1.167968 0.46806,-0.363415 0.94957,-0.700879 1.44336,-1.013672 0.4938,-0.312795 0.99863,-0.600269 1.51563,-0.863282 0.517,-0.263012 1.0463,-0.500774 1.58398,-0.714843 0.53768,-0.214071 1.08481,-0.404346 1.64063,-0.570313 0.55582,-0.165967 1.11997,-0.309031 1.6914,-0.427734 0.57143,-0.118703 1.14987,-0.212878 1.73438,-0.285156 0.58451,-0.07228 1.17448,-0.121745 1.76953,-0.148438 0.59505,-0.02669 1.19381,-0.03173 1.79688,-0.01367 0.60305,0.01805 1.20981,0.05913 1.81835,0.121094 0.60854,0.06196 1.22055,0.144971 1.83204,0.25 0.61148,0.105029 1.22208,0.231649 1.83398,0.378906 0.6119,0.147257 1.22421,0.315261 1.83398,0.503906 0.60978,0.188647 1.21715,0.397758 1.82227,0.626954 0.60512,0.229196 1.20871,0.479139 1.80664,0.748046 0.59794,0.268908 1.19108,0.557455 1.7793,0.865235 0.58821,0.307778 1.17013,0.634657 1.74609,0.980469 0.57596,0.345812 1.14586,0.710745 1.70703,1.09375 0.56118,0.383005 1.11435,0.783766 1.65821,1.203124 0.54385,0.41936 1.07755,0.857627 1.60156,1.3125 0.524,0.454875 1.03939,0.926467 1.54101,1.416016 0.50163,0.48955 0.9901,0.996146 1.4668,1.519531 0.47671,0.523386 0.94137,1.064712 1.39063,1.621094 0.44925,0.556383 0.88346,1.128257 1.30273,1.716797 -6.72107,-17.032387 -17.7687,-34.349659 -26.66602,-50.892578 z" />
      <path
         id="path52"
         style="fill:#005964;fill-opacity:1;stroke-width:3.77953;stroke-linecap:round"
         d="m -193.10156,28.214844 -6.62501,21.630859 c 8.1011,-3.216124 17.14456,-1.260961 24.36719,6.560547 0.11262,0.121962 0.20323,0.265852 0.30665,0.396484 l 2.24023,0.105469 L -167.5,40.75 c 0,0 -1.34375,-0.406253 -3.36719,-1.035156 -1.4735,-0.457983 -3.48393,-1.103328 -5.42187,-1.726563 L -189.5,35.0625 Z"
         sodipodi:nodetypes="ccscccsccc" />
      <path
         id="path53"
         style="fill:#cf621c;fill-opacity:1;stroke-width:3.77953;stroke-linecap:round"
         d="m -202.39438,0.60485603 c -0.61455,-0.10606129 -1.59911,0.28186339 -1.90445,0.95178457 l -2.51953,5.3808594 -34.25391,2.7539062 c 0,0 -19.55859,19.2636728 -19.55859,20.2636718 0,0.999999 1.08984,41.75 1.08984,41.75 l 2.66016,-41.25 L -239.25,13.5 -207,11.75 l 17.25,23.5 23.5,5.75 2,-6 -7.75,-1.75 -4.25,1.75 -11.5,-3.5 -16.03516,-23.6914062 2.23633,-5.8769532 c 0.36303,-0.7787146 0.0444,-1.17319892 -0.84555,-1.32678457 z"
         sodipodi:nodetypes="scccsccccccccccccs" />
    </g>
    <path
       style="fill:#ffffff;fill-opacity:1;stroke-width:1.54157;stroke-linecap:round"
       d="m 45.466554,23.878281 2.542833,-1.325588 1.089788,0.254921 0.458858,1.14077 -4.123346,0.06373 z"
       id="path34" />
    <circle
       style="fill:#556188;fill-opacity:1;stroke-width:1.49478;stroke-linecap:round"
       id="path35"
       cx="46.41613"
       cy="23.948385"
       r="1.2236198" />
    <circle
       style="fill:#343434;fill-opacity:1;stroke-width:1.49478;stroke-linecap:round"
       id="circle35"
       cx="45.71764"
       cy="24.200743"
       r="1.2236198" />
    <path
       id="path36"
       style="fill:#a34600;fill-opacity:1;stroke-width:1.54157;stroke-linecap:round"
       d="m 60.754631,69.737735 -2.486277,0.967106 c -0.0012,0.245746 -0.01207,0.470445 -0.03585,0.677928 -0.02378,0.20749 -0.06035,0.398027 -0.113915,0.577562 -0.0268,0.08976 -0.05842,0.176576 -0.094,0.261294 -0.03561,0.08471 -0.07579,0.167601 -0.12109,0.248543 -0.04529,0.08094 -0.09544,0.159732 -0.151357,0.238195 -0.05592,0.07846 -0.117382,0.156142 -0.18482,0.233409 -0.134868,0.154533 -0.293987,0.308531 -0.480365,0.466025 -0.186377,0.157501 -0.40014,0.318367 -0.645268,0.489131 -0.245127,0.170764 -0.521359,0.351356 -0.832477,0.545693 -0.307276,0.191927 -0.649783,0.398042 -1.028444,0.622959 4.797254,2.227701 8.004733,1.944389 14.16085,2.299071 3.354163,0 11.958327,-4.026041 12.917315,-5.619416 0.99373,-1.309504 1.342193,-4.674633 1.834631,-9.229723 -1.354103,2.664778 -1.367551,4.961053 -3.397614,6.689282 -2.474917,1.530541 -7.707148,3.503623 -10.572843,4.057225 -2.04431,0.07787 -5.081754,-1.765164 -8.768476,-3.524284 z"
       sodipodi:nodetypes="ccssssssssscccccccc" />
    <path
       id="path27"
       style="fill:#c15300;fill-opacity:1;stroke-width:1.54157;stroke-linecap:round"
       d="M 60.754631,69.737735 C 58.274978,68.554573 55.510348,67.408914 52.52467,66.911302 43.601941,64.989984 28.784035,63.245918 22.532443,64.957971 c -2.87385,0.707149 -5.763735,5.308154 -5.275266,7.522554 0.455901,3.256472 3.158498,5.242583 6.056755,6.83825 5.627191,3.228456 23.960238,-0.363492 31.26126,-4.25558 0.0016,7.77e-4 0.0037,0.0016 0.0056,0.0023 0.378661,-0.224917 0.721169,-0.431032 1.028445,-0.622968 0.311117,-0.194328 0.587349,-0.374928 0.832477,-0.545692 0.245128,-0.170756 0.45889,-0.33163 0.645268,-0.489124 0.186378,-0.157501 0.345497,-0.311491 0.480365,-0.466025 0.06744,-0.0773 0.130494,-0.153842 0.184819,-0.233416 0.948261,-1.389032 1.892214,-2.087106 3.002478,-2.970683 z"
       sodipodi:nodetypes="cccccccsssssc" />
    <path
       d="m -7.2756498,236.62773 a 40,40 0 0 0 -3.1386722,0.12304 40,40 0 0 0 -3.119141,0.36914 40,40 0 0 0 -3.080078,0.61328 40,40 0 0 0 -3.023437,0.85157 40,40 0 0 0 -2.947266,1.08789 40,40 0 0 0 -2.851562,1.31445 40,40 0 0 0 -2.740235,1.53516 40,40 0 0 0 -2.611328,1.74414 40,40 0 0 0 -2.466797,1.94336 40,40 0 0 0 -2.30664,2.13281 40,40 0 0 0 -2.132813,2.30664 40,40 0 0 0 -1.943359,2.4668 40,40 0 0 0 -1.744141,2.61132 40,40 0 0 0 -1.535156,2.74024 40,40 0 0 0 -1.314453,2.85156 40,40 0 0 0 -1.087891,2.94727 40,40 0 0 0 -0.851562,3.02343 40,40 0 0 0 -0.613281,3.08008 40,40 0 0 0 -0.369141,3.11914 40,40 0 0 0 -0.04492,1.13868 h 79.871094 a 40,40 0 0 0 0,-0.0156 40,40 0 0 0 -0.002,-0.0488 40,40 0 0 0 -0.0039,-0.0508 40,40 0 0 0 -0.002,-0.0508 40,40 0 0 0 -0.175781,-2.15821 40,40 0 0 0 -0.292969,-2.14648 40,40 0 0 0 -0.408203,-2.12891 40,40 0 0 0 -0.521484,-2.10156 40,40 0 0 0 -0.636719,-2.07031 40,40 0 0 0 -0.748047,-2.03321 40,40 0 0 0 -0.855469,-1.99023 40,40 0 0 0 -0.96289,-1.94141 40,40 0 0 0 -1.066407,-1.88672 40,40 0 0 0 -1.166015,-1.82421 40,40 0 0 0 -1.263672,-1.75977 40,40 0 0 0 -1.357422,-1.6875 40,40 0 0 0 -1.447266,-1.61328 40,40 0 0 0 -1.53125,-1.53125 40,40 0 0 0 -1.613281,-1.44727 40,40 0 0 0 -1.6875,-1.35742 40,40 0 0 0 -1.759765,-1.26367 40,40 0 0 0 -1.824219,-1.16602 40,40 0 0 0 -1.886719,-1.0664 40,40 0 0 0 -1.9414058,-0.96289 40,40 0 0 0 -1.990148,-0.85547 40,40 0 0 0 -2.033203,-0.74804 40,40 0 0 0 -2.070312,-0.63672 40,40 0 0 0 -2.101563,-0.52149 40,40 0 0 0 -2.12890598,-0.4082 40,40 0 0 0 -2.14648402,-0.29297 40,40 0 0 0 -2.158203,-0.17578 40,40 0 0 0 -2.166016,-0.0586 z"
       style="fill:#be0000;stroke-width:5.50301;stroke-linecap:round"
       id="path11" />
    <path
       d="m 32.673569,278.62773 h -79.871094 a 40,40 0 0 0 0.04492,1.13867 40,40 0 0 0 0.369141,3.11914 40,40 0 0 0 0.613281,3.08008 40,40 0 0 0 0.851562,3.02343 40,40 0 0 0 1.087891,2.94727 40,40 0 0 0 1.314453,2.85156 40,40 0 0 0 1.535156,2.74024 40,40 0 0 0 1.744141,2.61132 40,40 0 0 0 1.943359,2.4668 40,40 0 0 0 2.132813,2.30664 40,40 0 0 0 2.30664,2.13281 40,40 0 0 0 2.466797,1.94336 40,40 0 0 0 2.611328,1.74414 40,40 0 0 0 2.740235,1.53516 40,40 0 0 0 2.851562,1.31445 40,40 0 0 0 2.947266,1.08789 40,40 0 0 0 3.023437,0.85157 40,40 0 0 0 3.080078,0.61328 40,40 0 0 0 3.119141,0.36914 40,40 0 0 0 3.1386742,0.12305 40,40 0 0 0 3.138672,-0.12305 40,40 0 0 0 3.11914,-0.36914 40,40 0 0 0 3.080079,-0.61328 40,40 0 0 0 3.023437,-0.85157 40,40 0 0 0 2.947266,-1.08789 40,40 0 0 0 2.8515618,-1.31445 40,40 0 0 0 2.740235,-1.53516 40,40 0 0 0 2.611328,-1.74414 40,40 0 0 0 2.466797,-1.94336 40,40 0 0 0 2.30664,-2.13281 40,40 0 0 0 2.132813,-2.30664 40,40 0 0 0 1.943359,-2.4668 40,40 0 0 0 1.744141,-2.61132 40,40 0 0 0 1.535156,-2.74024 40,40 0 0 0 1.314453,-2.85156 40,40 0 0 0 1.087891,-2.94727 40,40 0 0 0 0.851562,-3.02343 40,40 0 0 0 0.613281,-3.08008 40,40 0 0 0 0.02344,-0.14844 40,40 0 0 0 0.02148,-0.14648 40,40 0 0 0 0.02344,-0.14844 40,40 0 0 0 0.02148,-0.14844 40,40 0 0 0 0.01953,-0.14844 40,40 0 0 0 0.02148,-0.14843 40,40 0 0 0 0.01953,-0.14844 40,40 0 0 0 0.01953,-0.14844 40,40 0 0 0 0.01758,-0.14844 40,40 0 0 0 0.01953,-0.14843 40,40 0 0 0 0.01758,-0.14844 40,40 0 0 0 0.01563,-0.14844 40,40 0 0 0 0.01758,-0.14844 40,40 0 0 0 0.01563,-0.14843 40,40 0 0 0 0.01563,-0.14844 40,40 0 0 0 0.01367,-0.15039 40,40 0 0 0 0.01563,-0.14844 40,40 0 0 0 0.01367,-0.14844 40,40 0 0 0 0.01172,-0.14843 40,40 0 0 0 0.01367,-0.1504 40,40 0 0 0 0.01172,-0.14843 40,40 0 0 0 0.01172,-0.14844 40,40 0 0 0 0.0098,-0.15039 40,40 0 0 0 0.01172,-0.14844 40,40 0 0 0 0.0098,-0.15039 40,40 0 0 0 0.0078,-0.14844 40,40 0 0 0 0.0098,-0.15039 40,40 0 0 0 0.0078,-0.14843 40,40 0 0 0 0.0038,-0.0937 z"
       style="fill:#ffffff;stroke-width:3.48784;stroke-linecap:round"
       id="path9" />
    <path
       id="path63"
       style="fill:#9d6827;fill-opacity:1;stroke-width:1.54157;stroke-linecap:round"
       d="m 82.396719,70.045753 c 0,0 -1.935008,1.790105 -2.981089,2.331213 -2.917216,1.508976 -6.031031,2.827049 -9.279118,3.313966 -2.590937,0.388401 -5.288452,0.185612 -7.851561,-0.356888 -1.792329,-0.379357 -5.120722,-1.996351 -5.120722,-1.996351 -0.02659,0.02331 -0.04947,0.04662 -0.07727,0.07008 -0.186378,0.157502 -0.40014,0.318368 -0.645268,0.489132 -0.245127,0.170764 -0.52136,0.351356 -0.832477,0.545692 -0.307276,0.191928 -0.649783,0.398043 -1.028445,0.62296 4.777082,2.218331 7.981938,1.947186 14.08756,2.295085 1.38389,-0.335755 2.888746,-0.670042 4.400571,-0.992597 3.687325,-1.298324 7.932984,-3.531137 8.590035,-4.622833 0.275102,-0.343191 0.591372,-1.093421 0.737785,-1.699482 z"
       sodipodi:nodetypes="cssscsssccccc" />
    <path
       id="path61"
       style="fill:#c88632;fill-opacity:1;stroke-width:1.54157;stroke-linecap:round"
       d="m 57.033583,69.419882 -13.587279,3.28486 c -0.82881,2.147544 -11.938789,2.357388 -15.881566,2.017492 -3.297508,-0.554985 -9.042252,-1.262918 -10.351378,-2.888567 -0.106656,3.249379 3.0008,5.778494 6.100572,7.485108 5.627187,3.228456 23.960242,-0.363492 31.26126,-4.25558 0.0016,7.77e-4 0.0037,0.0016 0.0056,0.0023 1.742798,-0.750471 4.773052,-2.960637 5.963552,-4.327285 z"
       sodipodi:nodetypes="ccccccccc" />
    <path
       style="fill:#9f4400;fill-opacity:1;stroke-width:1.54157;stroke-linecap:round"
       d="m 38.119263,69.620421 c -3.70063,0.0073 -7.365204,-0.237762 -10.993731,-0.518876 3.671655,0.443873 7.667773,1.049973 10.528274,1.764239 z"
       id="path62"
       sodipodi:nodetypes="cccc" />
    <path
       id="path7"
       style="fill:#000000;fill-opacity:1;stroke-width:2.70936;stroke-linecap:round"
       d="m -7.2756498,271.62773 a 5,5 0 0 0 -4.5761722,3 h -35.345703 a 40,40 0 0 0 -0.07813,2 40,40 0 0 0 0.07813,2 h 35.345703 a 5,5 0 0 0 4.5761722,3 5,5 0 0 0 4.576172,-3 H 32.673569 a 40,40 0 0 0 0.0039,-0.0566 40,40 0 0 0 0.0059,-0.14843 40,40 0 0 0 0.0078,-0.15039 40,40 0 0 0 0.0059,-0.14844 40,40 0 0 0 0.0039,-0.15039 40,40 0 0 0 0.0059,-0.14844 40,40 0 0 0 0.0039,-0.15039 40,40 0 0 0 0.0039,-0.14844 40,40 0 0 0 0.002,-0.15039 40,40 0 0 0 0.0039,-0.15039 40,40 0 0 0 0.002,-0.14844 40,40 0 0 0 0,-0.006 40,40 0 0 0 0,-0.006 40,40 0 0 0 0,-0.006 40,40 0 0 0 0,-0.006 40,40 0 0 0 0,-0.006 40,40 0 0 0 0,-0.006 40,40 0 0 0 0,-0.01 40,40 0 0 0 0,-0.006 40,40 0 0 0 0,-0.006 40,40 0 0 0 0,-0.006 40,40 0 0 0 0,-0.006 40,40 0 0 0 0,-0.006 40,40 0 0 0 0,-0.01 40,40 0 0 0 0,-0.006 40,40 0 0 0 0,-0.006 40,40 0 0 0 0,-0.006 40,40 0 0 0 0,-0.006 40,40 0 0 0 0,-0.01 40,40 0 0 0 0,-0.006 40,40 0 0 0 0,-0.006 40,40 0 0 0 0,-0.006 40,40 0 0 0 0,-0.006 40,40 0 0 0 0,-0.006 40,40 0 0 0 0,-0.004 40,40 0 0 0 0.002,-0.14843 40,40 0 0 0 0,-0.006 40,40 0 0 0 0,-0.006 40,40 0 0 0 0,-0.006 40,40 0 0 0 0,-0.006 40,40 0 0 0 0,-0.006 40,40 0 0 0 0,-0.006 40,40 0 0 0 0,-0.01 40,40 0 0 0 0,-0.006 40,40 0 0 0 0,-0.006 40,40 0 0 0 0,-0.006 40,40 0 0 0 0,-0.006 40,40 0 0 0 0,-0.006 40,40 0 0 0 0,-0.01 40,40 0 0 0 0,-0.006 40,40 0 0 0 0,-0.006 40,40 0 0 0 0,-0.006 40,40 0 0 0 0,-0.006 40,40 0 0 0 0,-0.01 40,40 0 0 0 0,-0.006 40,40 0 0 0 0,-0.006 40,40 0 0 0 0,-0.006 40,40 0 0 0 0,-0.006 40,40 0 0 0 0,-0.006 40,40 0 0 0 0,-0.004 40,40 0 0 0 0,-0.002 40,40 0 0 0 0,-0.002 40,40 0 0 0 0,-0.002 40,40 0 0 0 0,-0.002 40,40 0 0 0 0,-0.002 40,40 0 0 0 0,-0.002 40,40 0 0 0 0,-0.002 40,40 0 0 0 0,-0.002 40,40 0 0 0 0,-0.002 40,40 0 0 0 0,-0.002 40,40 0 0 0 0,-0.002 40,40 0 0 0 0,-0.002 40,40 0 0 0 0,-0.002 40,40 0 0 0 0,-0.002 40,40 0 0 0 0,-0.002 40,40 0 0 0 0,-0.002 40,40 0 0 0 0,-0.002 40,40 0 0 0 0,-0.002 40,40 0 0 0 0,-0.002 40,40 0 0 0 0,-0.002 40,40 0 0 0 0,-0.002 40,40 0 0 0 0,-0.002 40,40 0 0 0 0,-0.002 40,40 0 0 0 0,-0.002 40,40 0 0 0 0,-0.002 40,40 0 0 0 0,-0.002 40,40 0 0 0 0,-0.002 40,40 0 0 0 0,-0.002 40,40 0 0 0 0,-0.002 40,40 0 0 0 0,-0.002 40,40 0 0 0 0,-0.002 40,40 0 0 0 0,-0.002 40,40 0 0 0 0,-0.002 40,40 0 0 0 0,-0.002 40,40 0 0 0 0,-0.002 40,40 0 0 0 0,-0.002 40,40 0 0 0 0,-0.002 40,40 0 0 0 0,-0.002 40,40 0 0 0 0,-0.002 40,40 0 0 0 0,-0.002 40,40 0 0 0 0,-0.002 40,40 0 0 0 0,-0.002 40,40 0 0 0 0,-0.002 40,40 0 0 0 0,-0.002 40,40 0 0 0 0,-0.002 40,40 0 0 0 0,-0.002 40,40 0 0 0 0,-0.002 40,40 0 0 0 0,-0.002 40,40 0 0 0 0,-0.002 40,40 0 0 0 0,-0.002 40,40 0 0 0 0,-0.002 40,40 0 0 0 0,-0.002 40,40 0 0 0 0,-0.002 40,40 0 0 0 0,-0.002 40,40 0 0 0 0,-0.002 40,40 0 0 0 0,-0.002 40,40 0 0 0 0,-0.002 40,40 0 0 0 0,-0.002 40,40 0 0 0 0,-0.002 40,40 0 0 0 0,-0.002 40,40 0 0 0 0,-0.002 40,40 0 0 0 0,-0.002 40,40 0 0 0 0,-0.002 40,40 0 0 0 0,-0.002 40,40 0 0 0 0,-0.002 40,40 0 0 0 0,-0.002 40,40 0 0 0 0,-0.002 40,40 0 0 0 0,-0.002 40,40 0 0 0 0,-0.002 40,40 0 0 0 0,-0.002 40,40 0 0 0 0,-0.002 40,40 0 0 0 0,-0.002 40,40 0 0 0 0,-0.002 40,40 0 0 0 0,-0.002 40,40 0 0 0 0,-0.002 40,40 0 0 0 0,-0.002 40,40 0 0 0 0,-0.002 40,40 0 0 0 0,-0.002 40,40 0 0 0 0,-0.002 40,40 0 0 0 0,-0.002 40,40 0 0 0 0,-0.002 40,40 0 0 0 0,-0.002 40,40 0 0 0 0,-0.002 40,40 0 0 0 0,-0.002 40,40 0 0 0 0,-0.002 40,40 0 0 0 0,-0.002 40,40 0 0 0 0,-0.002 40,40 0 0 0 0,-0.002 40,40 0 0 0 0,-0.002 40,40 0 0 0 0,-0.002 40,40 0 0 0 0,-0.002 40,40 0 0 0 0,-0.002 40,40 0 0 0 0,-0.002 40,40 0 0 0 0,-0.002 40,40 0 0 0 0,-0.002 40,40 0 0 0 0,-0.002 40,40 0 0 0 0,-0.002 40,40 0 0 0 0,-0.002 40,40 0 0 0 0,-0.002 40,40 0 0 0 0,-0.002 40,40 0 0 0 0,-0.002 40,40 0 0 0 0,-0.002 40,40 0 0 0 0,-0.002 40,40 0 0 0 0,-0.002 40,40 0 0 0 0,-0.002 40,40 0 0 0 0,-0.002 40,40 0 0 0 0,-0.002 40,40 0 0 0 0,-0.002 40,40 0 0 0 0,-0.002 40,40 0 0 0 0,-0.002 40,40 0 0 0 0,-0.002 40,40 0 0 0 0,-0.002 40,40 0 0 0 0,-0.002 40,40 0 0 0 0,-0.002 40,40 0 0 0 0,-0.002 40,40 0 0 0 0,-0.002 40,40 0 0 0 0,-0.002 40,40 0 0 0 0,-0.002 40,40 0 0 0 0,-0.002 40,40 0 0 0 0,-0.002 40,40 0 0 0 0,-0.002 40,40 0 0 0 0,-0.002 40,40 0 0 0 0,-0.002 40,40 0 0 0 0,-0.002 40,40 0 0 0 0,-0.002 40,40 0 0 0 0,-0.002 40,40 0 0 0 0,-0.002 40,40 0 0 0 0,-0.002 40,40 0 0 0 0,-0.002 40,40 0 0 0 -0.002,-0.0508 40,40 0 0 0 0,-0.002 40,40 0 0 0 0,-0.002 40,40 0 0 0 0,-0.002 40,40 0 0 0 0,-0.002 40,40 0 0 0 0,-0.002 40,40 0 0 0 0,-0.002 40,40 0 0 0 0,-0.002 40,40 0 0 0 0,-0.002 40,40 0 0 0 0,-0.002 40,40 0 0 0 0,-0.002 40,40 0 0 0 0,-0.002 40,40 0 0 0 0,-0.002 40,40 0 0 0 0,-0.002 40,40 0 0 0 0,-0.002 40,40 0 0 0 0,-0.002 40,40 0 0 0 0,-0.002 40,40 0 0 0 0,-0.002 40,40 0 0 0 0,-0.002 40,40 0 0 0 0,-0.002 40,40 0 0 0 0,-0.002 40,40 0 0 0 0,-0.002 40,40 0 0 0 0,-0.002 40,40 0 0 0 0,-0.002 40,40 0 0 0 0,-0.002 40,40 0 0 0 0,-0.002 40,40 0 0 0 0,-0.002 40,40 0 0 0 0,-0.002 40,40 0 0 0 0,-0.002 40,40 0 0 0 0,-0.002 40,40 0 0 0 0,-0.002 40,40 0 0 0 0,-0.002 40,40 0 0 0 0,-0.002 40,40 0 0 0 0,-0.002 40,40 0 0 0 0,-0.002 40,40 0 0 0 0,-0.002 40,40 0 0 0 0,-0.002 40,40 0 0 0 0,-0.002 40,40 0 0 0 0,-0.002 40,40 0 0 0 0,-0.002 40,40 0 0 0 0,-0.002 40,40 0 0 0 0,-0.002 40,40 0 0 0 0,-0.002 40,40 0 0 0 0,-0.002 40,40 0 0 0 0,-0.002 40,40 0 0 0 0,-0.002 40,40 0 0 0 0,-0.002 40,40 0 0 0 0,-0.002 40,40 0 0 0 0,-0.002 40,40 0 0 0 0,-0.002 40,40 0 0 0 0,-0.002 40,40 0 0 0 0,-0.002 40,40 0 0 0 0,-0.002 40,40 0 0 0 0,-0.002 40,40 0 0 0 0,-0.002 40,40 0 0 0 0,-0.002 40,40 0 0 0 0,-0.002 40,40 0 0 0 0,-0.002 40,40 0 0 0 0,-0.002 40,40 0 0 0 0,-0.002 40,40 0 0 0 0,-0.002 40,40 0 0 0 0,-0.002 40,40 0 0 0 0,-0.002 40,40 0 0 0 0,-0.002 40,40 0 0 0 0,-0.002 40,40 0 0 0 0,-0.002 40,40 0 0 0 0,-0.002 40,40 0 0 0 0,-0.002 40,40 0 0 0 0,-0.002 40,40 0 0 0 0,-0.002 40,40 0 0 0 0,-0.002 40,40 0 0 0 0,-0.002 40,40 0 0 0 0,-0.002 40,40 0 0 0 0,-0.002 40,40 0 0 0 0,-0.002 40,40 0 0 0 0,-0.002 40,40 0 0 0 0,-0.002 40,40 0 0 0 0,-0.002 40,40 0 0 0 -0.002,-0.0508 40,40 0 0 0 0,-0.002 40,40 0 0 0 0,-0.002 40,40 0 0 0 0,-0.002 40,40 0 0 0 0,-0.002 40,40 0 0 0 0,-0.002 40,40 0 0 0 0,-0.002 40,40 0 0 0 0,-0.002 40,40 0 0 0 0,-0.002 40,40 0 0 0 0,-0.002 40,40 0 0 0 0,-0.002 40,40 0 0 0 0,-0.002 40,40 0 0 0 0,-0.002 40,40 0 0 0 0,-0.002 40,40 0 0 0 0,-0.002 40,40 0 0 0 0,-0.002 40,40 0 0 0 0,-0.002 40,40 0 0 0 0,-0.002 40,40 0 0 0 0,-0.002 40,40 0 0 0 0,-0.002 40,40 0 0 0 0,-0.002 40,40 0 0 0 0,-0.002 40,40 0 0 0 0,-0.002 40,40 0 0 0 0,-0.002 40,40 0 0 0 0,-0.002 40,40 0 0 0 0,-0.002 40,40 0 0 0 0,-0.002 40,40 0 0 0 0,-0.002 40,40 0 0 0 0,-0.002 40,40 0 0 0 0,-0.002 40,40 0 0 0 0,-0.002 40,40 0 0 0 0,-0.002 40,40 0 0 0 0,-0.002 40,40 0 0 0 0,-0.002 40,40 0 0 0 0,-0.002 40,40 0 0 0 0,-0.002 40,40 0 0 0 0,-0.002 40,40 0 0 0 0,-0.002 40,40 0 0 0 0,-0.002 40,40 0 0 0 0,-0.002 40,40 0 0 0 0,-0.002 40,40 0 0 0 0,-0.002 40,40 0 0 0 0,-0.002 40,40 0 0 0 0,-0.002 40,40 0 0 0 0,-0.002 40,40 0 0 0 0,-0.002 40,40 0 0 0 0,-0.002 40,40 0 0 0 0,-0.002 40,40 0 0 0 0,-0.002 40,40 0 0 0 0,-0.002 40,40 0 0 0 0,-0.002 40,40 0 0 0 0,-0.002 40,40 0 0 0 0,-0.002 40,40 0 0 0 -0.002,-0.0488 40,40 0 0 0 0,-0.002 40,40 0 0 0 0,-0.002 40,40 0 0 0 0,-0.002 40,40 0 0 0 0,-0.002 40,40 0 0 0 0,-0.002 40,40 0 0 0 0,-0.002 40,40 0 0 0 0,-0.002 40,40 0 0 0 0,-0.002 40,40 0 0 0 0,-0.002 40,40 0 0 0 0,-0.002 40,40 0 0 0 0,-0.002 40,40 0 0 0 0,-0.002 40,40 0 0 0 0,-0.002 40,40 0 0 0 0,-0.002 40,40 0 0 0 0,-0.002 40,40 0 0 0 0,-0.002 40,40 0 0 0 0,-0.002 40,40 0 0 0 0,-0.002 40,40 0 0 0 0,-0.002 40,40 0 0 0 0,-0.002 40,40 0 0 0 0,-0.002 40,40 0 0 0 0,-0.002 40,40 0 0 0 0,-0.002 40,40 0 0 0 0,-0.002 40,40 0 0 0 0,-0.002 40,40 0 0 0 0,-0.002 40,40 0 0 0 -0.002,-0.0508 40,40 0 0 0 0,-0.002 40,40 0 0 0 0,-0.002 40,40 0 0 0 0,-0.002 40,40 0 0 0 0,-0.002 40,40 0 0 0 0,-0.002 40,40 0 0 0 0,-0.002 40,40 0 0 0 0,-0.002 40,40 0 0 0 0,-0.002 40,40 0 0 0 0,-0.002 40,40 0 0 0 0,-0.002 40,40 0 0 0 0,-0.002 40,40 0 0 0 0,-0.002 40,40 0 0 0 0,-0.002 40,40 0 0 0 0,-0.002 40,40 0 0 0 0,-0.002 40,40 0 0 0 0,-0.002 40,40 0 0 0 0,-0.002 40,40 0 0 0 0,-0.002 40,40 0 0 0 0,-0.002 40,40 0 0 0 0,-0.002 40,40 0 0 0 0,-0.002 40,40 0 0 0 0,-0.002 40,40 0 0 0 0,-0.002 40,40 0 0 0 0,-0.002 40,40 0 0 0 0,-0.002 40,40 0 0 0 0,-0.002 40,40 0 0 0 -0.002,-0.0508 40,40 0 0 0 0,-0.002 40,40 0 0 0 0,-0.002 40,40 0 0 0 0,-0.002 40,40 0 0 0 0,-0.002 40,40 0 0 0 0,-0.002 40,40 0 0 0 0,-0.002 40,40 0 0 0 0,-0.002 40,40 0 0 0 0,-0.002 40,40 0 0 0 0,-0.002 40,40 0 0 0 0,-0.002 40,40 0 0 0 0,-0.002 40,40 0 0 0 0,-0.002 40,40 0 0 0 0,-0.002 40,40 0 0 0 0,-0.002 40,40 0 0 0 0,-0.002 40,40 0 0 0 0,-0.002 40,40 0 0 0 0,-0.002 40,40 0 0 0 0,-0.002 40,40 0 0 0 0,-0.002 40,40 0 0 0 0,-0.002 40,40 0 0 0 0,-0.002 40,40 0 0 0 0,-0.002 40,40 0 0 0 0,-0.002 40,40 0 0 0 0,-0.002 40,40 0 0 0 0,-0.002 40,40 0 0 0 -0.002,-0.0508 40,40 0 0 0 0,-0.002 40,40 0 0 0 0,-0.002 40,40 0 0 0 0,-0.002 40,40 0 0 0 0,-0.002 40,40 0 0 0 0,-0.002 40,40 0 0 0 0,-0.002 40,40 0 0 0 0,-0.002 40,40 0 0 0 0,-0.002 40,40 0 0 0 0,-0.002 40,40 0 0 0 0,-0.002 40,40 0 0 0 0,-0.002 40,40 0 0 0 0,-0.002 40,40 0 0 0 0,-0.002 40,40 0 0 0 0,-0.002 40,40 0 0 0 0,-0.002 40,40 0 0 0 0,-0.002 40,40 0 0 0 0,-0.002 40,40 0 0 0 0,-0.002 40,40 0 0 0 0,-0.002 40,40 0 0 0 0,-0.002 40,40 0 0 0 0,-0.002 40,40 0 0 0 0,-0.002 40,40 0 0 0 0,-0.002 40,40 0 0 0 0,-0.002 40,40 0 0 0 0,-0.002 40,40 0 0 0 0,-0.002 40,40 0 0 0 -0.002,-0.0508 40,40 0 0 0 -0.002,-0.0508 40,40 0 0 0 -0.002,-0.0488 40,40 0 0 0 0,-0.002 40,40 0 0 0 0,-0.002 40,40 0 0 0 0,-0.002 40,40 0 0 0 0,-0.002 40,40 0 0 0 0,-0.002 40,40 0 0 0 0,-0.002 40,40 0 0 0 0,-0.002 40,40 0 0 0 0,-0.002 40,40 0 0 0 0,-0.002 40,40 0 0 0 0,-0.002 40,40 0 0 0 0,-0.002 40,40 0 0 0 0,-0.002 40,40 0 0 0 0,-0.002 40,40 0 0 0 0,-0.002 40,40 0 0 0 0,-0.002 40,40 0 0 0 0,-0.002 40,40 0 0 0 0,-0.002 40,40 0 0 0 0,-0.002 40,40 0 0 0 0,-0.002 40,40 0 0 0 0,-0.002 40,40 0 0 0 0,-0.002 40,40 0 0 0 0,-0.002 40,40 0 0 0 0,-0.002 40,40 0 0 0 0,-0.002 40,40 0 0 0 0,-0.002 40,40 0 0 0 0,-0.002 40,40 0 0 0 -0.002,-0.0508 40,40 0 0 0 -0.002,-0.0508 40,40 0 0 0 -0.002,-0.0508 40,40 0 0 0 -0.002,-0.0488 40,40 0 0 0 -0.002,-0.0508 40,40 0 0 0 -0.002,-0.0508 40,40 0 0 0 -0.002,-0.0508 40,40 0 0 0 -0.002,-0.0488 40,40 0 0 0 -0.002,-0.0508 40,40 0 0 0 -0.002,-0.0508 40,40 0 0 0 -0.002,-0.0508 40,40 0 0 0 -0.0039,-0.0508 40,40 0 0 0 -0.002,-0.0488 40,40 0 0 0 -0.002,-0.0508 40,40 0 0 0 -0.0039,-0.0508 40,40 0 0 0 0,-0.0351 H -2.6955718 a 5,5 0 0 0 -4.580078,-3 z" />
    <circle
       style="fill:#000000;fill-opacity:1;stroke-width:7.43854;stroke-linecap:round"
       id="circle14"
       cx="-7.2756495"
       cy="276.62772"
       r="6" />
    <circle
       style="fill:#ffffff;fill-opacity:1;stroke-width:3.71927;stroke-linecap:round"
       id="path14"
       cx="-7.2756495"
       cy="276.62772"
       r="3" />
    <path
       id="path33"
       style="fill:#ff7318;fill-opacity:1;stroke-width:1.54157;stroke-linecap:round"
       d="m 48.858591,21.851661 -2.318984,0.12268 -0.579147,0.158529 -0.497891,0.552063 -5.478407,1.510405 c -0.379029,-0.613706 -0.887753,-0.824533 -1.386133,-1.14316 -0.61391,0.01587 -1.282064,0.338626 -1.921467,0.660405 -0.304037,-0.183427 -0.59536,-0.398909 -1.001357,-0.467621 -0.361376,0.156577 -0.647373,1.462887 -0.615,2.666312 0.006,0.04811 0.09675,0.0435 0.180835,0.0247 l 0.258905,2.554784 c 0.375485,0.465976 2.053239,0.453339 2.879088,0.381867 2.329879,1.152148 5.523967,1.004657 6.719476,0.895924 1.022523,0.570645 2.720475,7.839006 -0.653233,14.173597 l -0.85478,0.678726 -1.570153,-0.364058 -1.359846,1.322402 -8.718291,2.162046 -1.785241,5.092043 -1.838615,0.779899 -0.661204,1.656188 1.337539,1.76214 -0.18163,-1.644239 0.711388,-0.231022 0.05417,1.866499 0.539318,0.799814 1.050751,-0.08922 -0.466028,-0.548876 0.462044,-1.253892 0.501876,-0.307498 0.759981,0.488333 -0.159323,1.163872 1.027649,-1.860125 -0.321041,-2.128589 -0.743256,-0.287582 1.162281,-3.254224 c 0,0 5.466545,-1.549685 8.081789,-1.570152 0.264408,-0.0021 0.450891,0.101292 0.583927,0.266073 -1.598937,4.158836 -3.734006,10.314517 -4.080328,14.344871 -0.261667,0.117653 -0.507957,0.294785 -0.728119,0.540909 -4.332075,6.288768 -4.96166,10.358506 -5.818565,16.858228 -0.213162,1.616846 -0.449084,1.464309 -0.467622,2.207454 0.41448,1.899707 5.216193,1.623271 5.906996,-0.276428 l -0.02868,-5.820955 c 2.088625,-0.91418 3.522194,-2.258452 4.921566,-3.871608 1.53316,1.078907 5.912303,1.90778 9.74355,1.453844 4.07727,-0.483095 7.265553,-2.373673 8.8824,-3.06383 0.0066,0.01274 0.01166,0.02548 0.01831,0.03823 1.540716,1.83592 3.047156,3.36094 5.34776,4.36791 l 0.175263,6.12766 c 2.424265,0.956485 3.80924,0.900724 5.702261,-0.0303 -0.01856,-0.743136 -0.253665,-0.5906 -0.466823,-2.207454 -0.856909,-6.499713 -1.48729,-10.56946 -5.819365,-16.858228 -0.148409,-0.165906 -0.308654,-0.299615 -0.477179,-0.40628 -0.333502,-4.104309 -4.100505,-10.566894 -6.626346,-15.304011 0.104709,-0.05857 0.228809,-0.09199 0.379192,-0.09081 2.615246,0.02046 8.081788,1.570152 8.081788,1.570152 l 1.16228,3.254224 -0.743255,0.287582 -0.321042,2.128589 1.02765,1.860125 -0.159324,-1.163873 0.759982,-0.488333 0.501876,0.307499 0.462043,1.253892 -0.466028,0.548876 1.050751,0.08922 0.539318,-0.799814 0.05417,-1.866498 0.711388,0.231022 -0.181626,1.64426 1.337538,-1.76214 L 71.779158,51.8885 69.940543,51.108602 68.155302,46.016559 59.437011,43.854512 58.077166,42.53211 56.279179,42.949543 C 56.1496,42.722532 55.374685,42.307375 55.356686,42.276393 51.693335,34.690676 52.131937,25.191123 52.131937,25.191123 L 56.3817,26.06148 c 1.223648,0.272476 1.870478,-0.572636 0.967104,-0.967107 l -5.423989,-2.390321 -2.156471,-0.208717 0.02949,-0.01912 z m -0.825307,0.841238 0.799019,0.181631 c 2.9e-4,2.33e-4 4.08e-4,5.71e-4 7.77e-4,7.77e-4 0.308442,0.248231 0.480308,0.66384 0.594284,0.971885 l -3.740165,0.07409 2.232947,-1.202908 c 0.03373,-0.0076 0.11312,-0.02549 0.11312,-0.02549 z"
       sodipodi:nodetypes="ccccccccccccccccccccccccccccccccccccscccsccccscccccccccsccccccccccccccccccccccccccccccccsccccc" />
    <g
       id="g22"
       transform="matrix(0.40787328,0,0,0.40787328,79.390289,22.8515)">
      <path
         style="fill:#fffbf8;fill-opacity:1;stroke-width:3.77953;stroke-linecap:round"
         d="m -104.87392,146.44896 c -1.12292,-3.24371 -2.87121,-1.92632 -3.04551,1.90112 1.06999,0.72174 2.49323,0.3594 3.39963,1.88754 0.24711,-1.41765 -0.11432,-2.47686 -0.35412,-3.78866 z"
         id="path20"
         sodipodi:nodetypes="cccc" />
      <path
         style="fill:#fffbf8;fill-opacity:1;stroke-width:4.3494;stroke-linecap:round"
         d="m -110.0623,148.9422 c -0.35572,-5.27511 -2.90743,-3.4269 -3.79556,0.13269 0.0765,0.77116 1.0716,2.80104 1.50448,3.37882 0.62066,-0.62584 1.58091,-2.57886 2.29105,-3.51151 z"
         id="path21"
         sodipodi:nodetypes="ccccc" />
      <path
         style="fill:#fffbf8;fill-opacity:1;stroke-width:3.77953;stroke-linecap:round"
         d="m -118.48921,146.70289 c 1.75203,-2.95178 3.42591,-1.78982 2.82728,1.99454 -1.19323,0.49192 -2.53494,0.11179 -3.73003,1.42653 0.0429,-1.43838 0.40414,-2.18425 0.90275,-3.42107 z"
         id="path22"
         sodipodi:nodetypes="cccc" />
    </g>
    <g
       id="g26"
       transform="matrix(-0.40787328,0,0,0.40787328,19.876046,24.121524)">
      <path
         style="fill:#fffbf8;fill-opacity:1;stroke-width:3.77953;stroke-linecap:round"
         d="m -112.89535,139.93418 c -1.12292,-3.24371 -2.9962,-2.44194 -3.1705,1.3855 1.06999,0.72174 2.53187,0.39777 3.43827,1.92591 0.24711,-1.41765 -0.028,-1.99961 -0.26777,-3.31141 z"
         id="path24"
         sodipodi:nodetypes="cccc" />
      <path
         style="fill:#fffbf8;fill-opacity:1;stroke-width:3.77953;stroke-linecap:round"
         d="m -118.76047,141.91811 c 0.48952,-5.99935 -2.35709,-3.87567 -2.96188,-0.87021 -0.59643,1.75287 0.17275,2.47982 0.18535,3.29099 0.74894,-0.66321 1.49656,-0.79274 2.77656,-2.42078 z"
         id="path25"
         sodipodi:nodetypes="ccccc" />
      <path
         style="fill:#fffbf8;fill-opacity:1;stroke-width:3.77953;stroke-linecap:round"
         d="m -126.52626,139.4438 c 1.75203,-2.95178 3.42591,-1.78982 2.82728,1.99454 -1.19323,0.49192 -2.26977,0.64212 -3.46486,1.95686 0.0429,-1.43838 0.13897,-2.71458 0.63758,-3.9514 z"
         id="path26"
         sodipodi:nodetypes="cccc" />
    </g>
    <path
       style="fill:#ff1818;fill-opacity:1;stroke-width:0.884408;stroke-linecap:round"
       d="m 83.040404,64.487539 c -0.190126,-0.146249 -2.26687,-1.316246 -2.310745,-1.462495 -0.04387,-0.14625 -0.190122,-2.032869 -0.219374,-2.252244 -0.02924,-0.219374 1.477121,-2.632492 1.477121,-2.632492 l 0.906747,-2.822617 1.506374,2.632493 0.804371,2.530117 -0.585001,2.647118 z"
       id="path54" />
    <path
       style="fill:#fb8f02;fill-opacity:0;stroke-width:1.54157;stroke-linecap:round"
       d="m 81.429504,62.734584 1.45942,-0.197564 1.382948,-0.03187 -1.22362,1.975636 z"
       id="path59" />
    <path
       id="path57"
       style="fill:#f5b500;fill-opacity:1;stroke-width:1.54157;stroke-linecap:round"
       d="m 83.914982,59.180032 -1.302327,0.57037 -1.715042,3.217817 1.460623,0.909561 2.261764,-0.750459 0.584723,-2.647193 -0.231024,-0.235802 z"
       sodipodi:nodetypes="cccccccc" />
    <path
       id="path55"
       style="fill:#ff8e18;fill-opacity:1;stroke-width:1.54157;stroke-linecap:round"
       d="m 85.007157,59.859555 -0.770167,3.023248 -2.20697,0.766668 -1.389975,-3.208377 c -0.08448,0.168527 -0.13541,0.289707 -0.12985,0.331396 0.02924,0.219375 0.175197,2.106614 0.219073,2.252863 0.04387,0.146249 2.120892,1.315562 2.311018,1.461811 l 0.01195,-0.01036 0.0088,-0.0071 0.01195,0.01275 0.02549,-0.0454 1.521559,-1.309656 0.584723,-2.647193 z m -1.985993,4.565473 0.03108,0.03426 -0.004,0.01036 z"
       sodipodi:nodetypes="ccccsscccccccccccc" />
    <path
       id="path60"
       style="fill:#ffc57c;fill-opacity:1;stroke-width:1.54157;stroke-linecap:round"
       d="m 51.319372,49.13456 a 10.815374,14.312345 0 0 0 -10.815808,14.312209 10.815374,14.312345 0 0 0 2.907688,9.727619 c 2.058475,0.663904 5.22989,1.042228 8.096125,0.702627 4.077265,-0.483095 7.265553,-2.373681 8.882399,-3.06383 0.0065,0.01274 0.01168,0.02548 0.01832,0.03823 0.03196,0.03807 0.06446,0.07132 0.09639,0.109129 A 10.815374,14.312345 0 0 0 62.134389,63.446769 10.815374,14.312345 0 0 0 51.319372,49.13456 Z" />
  </g>
</svg>
