<?xml version="1.0" encoding="UTF-8" standalone="no"?>
<!-- Created with Inkscape (http://www.inkscape.org/) -->

<svg
   width="100mm"
   height="100mm"
   viewBox="0 0 100 100"
   version="1.1"
   id="svg1"
   inkscape:version="1.3 (0e150ed6c4, 2023-07-21)"
   sodipodi:docname="ottaro.svg"
   xmlns:inkscape="http://www.inkscape.org/namespaces/inkscape"
   xmlns:sodipodi="http://sodipodi.sourceforge.net/DTD/sodipodi-0.dtd"
   xmlns="http://www.w3.org/2000/svg"
   xmlns:svg="http://www.w3.org/2000/svg">
  <sodipodi:namedview
     id="namedview1"
     pagecolor="#505050"
     bordercolor="#eeeeee"
     borderopacity="1"
     inkscape:showpageshadow="0"
     inkscape:pageopacity="0"
     inkscape:pagecheckerboard="0"
     inkscape:deskcolor="#505050"
     inkscape:document-units="mm"
     inkscape:zoom="1.4142136"
     inkscape:cx="243.95184"
     inkscape:cy="124.80435"
     inkscape:window-width="1920"
     inkscape:window-height="991"
     inkscape:window-x="-9"
     inkscape:window-y="-9"
     inkscape:window-maximized="1"
     inkscape:current-layer="layer1"
     showguides="false" />
  <defs
     id="defs1" />
  <g
     inkscape:label="Ebene 1"
     inkscape:groupmode="layer"
     id="layer1">
    <g
       id="g19"
       transform="matrix(1.1839443,0,0,1.1839443,-9.828423,-0.30918021)">
      <path
         style="fill:#4b47a8;fill-opacity:1;stroke-width:0.643186;stroke-linecap:round"
         d="m 42.558518,82.722634 c 2.656316,-2.666112 2.612672,-9.334977 -1.724193,-9.469403 -4.98341,0.594652 -9.24646,6.620094 -9.853529,7.83517 0.05568,3.259925 7.979542,4.233157 11.577722,1.634233 z"
         id="path7"
         sodipodi:nodetypes="cccc" />
      <path
         id="path14"
         style="fill:#000000;fill-opacity:0.207031;stroke-width:0.214337;stroke-linecap:round"
         d="m 35.569516,79.144496 c 0.04801,-0.09146 0.426651,0.06653 0.370257,0.189625 l -3.056991,4.075017 c -0.125879,-0.0703 -0.228037,-0.107876 -0.388533,-0.209614 z"
         sodipodi:nodetypes="ccccc" />
      <path
         id="path19"
         style="fill:#000000;fill-opacity:0.207031;stroke-width:0.214337;stroke-linecap:round"
         d="m 39.095084,79.974481 c 0.01662,-0.10195 0.42579,-0.07183 0.411226,0.06278 l -1.730668,4.155351 c -0.178859,-10e-4 -0.203941,0.0132 -0.432819,0.01292 z"
         sodipodi:nodetypes="ccccc" />
    </g>
    <g
       id="g22"
       transform="matrix(-1.1839443,0,0,1.1839443,107.02463,-1.4099749)">
      <path
         style="fill:#4b47a8;fill-opacity:1;stroke-width:0.643186;stroke-linecap:round"
         d="m 42.558518,82.722634 c 2.656316,-2.666112 2.612672,-9.334977 -1.724193,-9.469403 -4.98341,0.594652 -9.24646,6.620094 -9.853529,7.83517 0.05568,3.259925 7.979542,4.233157 11.577722,1.634233 z"
         id="path20"
         sodipodi:nodetypes="cccc" />
      <path
         id="path21"
         style="fill:#000000;fill-opacity:0.207031;stroke-width:0.214337;stroke-linecap:round"
         d="m 35.569516,79.144496 c 0.04801,-0.09146 0.426651,0.06653 0.370257,0.189625 l -3.056991,4.075017 c -0.125879,-0.0703 -0.228037,-0.107876 -0.388533,-0.209614 z"
         sodipodi:nodetypes="ccccc" />
      <path
         id="path22"
         style="fill:#000000;fill-opacity:0.207031;stroke-width:0.214337;stroke-linecap:round"
         d="m 39.095084,79.974481 c 0.01662,-0.10195 0.42579,-0.07183 0.411226,0.06278 l -1.730668,4.155351 c -0.178859,-10e-4 -0.203941,0.0132 -0.432819,0.01292 z"
         sodipodi:nodetypes="ccccc" />
    </g>
    <path
       style="fill:#3e3a88;fill-opacity:1;stroke-width:1.28148;stroke-linecap:round"
       d="M 93.580487,79.246396 C 86.686467,83.67045 64.888973,87.391302 61.497662,82.704227 60.045954,76.895046 78.497163,68.800422 80.364093,67.4545 91.042697,65.673364 99.613977,73.825893 93.580487,79.246396 Z"
       id="path9"
       sodipodi:nodetypes="cccc" />
    <path
       style="fill:#4b47a8;fill-opacity:1;stroke-width:1.37464;stroke-linecap:round"
       d="M 23.76754,20.869096 C 24.986669,21.990815 33.126584,7.6148033 31.912902,6.9242763 28.201111,4.8124455 20.288728,8.8541883 19.908948,9.8005733 19.494185,10.834134 19.341788,16.796964 23.76754,20.869096 Z"
       id="path12"
       sodipodi:nodetypes="ssss" />
    <path
       id="rect1"
       style="fill:#1bd6c4;fill-opacity:1;stroke-width:0.879093;stroke-linecap:round"
       d="m 36.75996,47.978736 27.482573,-0.03606 c 3.25437,12.808226 8.40446,19.271199 7.01434,31.963314 -0.21895,15.928178 -43.460396,17.241849 -43.350924,0 -1.04843,-12.221023 4.909599,-25.047405 8.854011,-31.927248 z"
       sodipodi:nodetypes="cccccc" />
    <ellipse
       style="fill:#1bd6c4;fill-opacity:1;stroke-width:0.700481;stroke-linecap:round"
       id="path13"
       cx="34.398884"
       cy="51.868633"
       rx="4.2303958"
       ry="2.8657522" />
    <path
       id="path1"
       style="fill:#ffffff;stroke-width:1.27693;stroke-linecap:round"
       d="m 80.074913,29.067925 c 0,16.34686 -13.14117,26.502483 -29.488031,26.502483 -16.34686,0 -29.709184,-10.155623 -29.709184,-26.502483 0,-16.34686 13.030597,-27.3870892 29.377457,-27.3870892 16.346858,0 29.819758,11.0402292 29.819758,27.3870892 z"
       sodipodi:nodetypes="sssss" />
    <ellipse
       style="fill:#000000;fill-opacity:1;stroke-width:1.41729;stroke-linecap:round"
       id="path3"
       cx="36.438709"
       cy="25.569822"
       rx="2.9598608"
       ry="4.7357774" />
    <ellipse
       style="fill:#ffffff;fill-opacity:1;stroke-width:2.35066;stroke-linecap:round"
       id="path4"
       cx="36.091839"
       cy="25.212132"
       rx="0.99116641"
       ry="1.6275408"
       transform="matrix(0.99843997,-0.05583564,0.02719177,0.99963024,0,0)" />
    <ellipse
       style="fill:#000000;fill-opacity:1;stroke-width:1.41729;stroke-linecap:round"
       id="ellipse4"
       cx="62.788403"
       cy="25.335257"
       rx="2.9598608"
       ry="4.7357774" />
    <ellipse
       style="fill:#ffffff;fill-opacity:1;stroke-width:2.35066;stroke-linecap:round"
       id="ellipse5"
       cx="62.448986"
       cy="26.449688"
       rx="0.99116641"
       ry="1.6275408"
       transform="matrix(0.99843997,-0.05583564,0.02719177,0.99963024,0,0)" />
    <ellipse
       style="fill:#d19a1d;fill-opacity:1;stroke-width:1.40457;stroke-linecap:round"
       id="path5"
       cx="49.608074"
       cy="28.577847"
       rx="6.6460643"
       ry="4.4567719" />
    <circle
       style="fill:#000000;fill-opacity:1;stroke-width:0.390095;stroke-linecap:round"
       id="path6"
       cx="34.051037"
       cy="36.327469"
       r="0.29598609" />
    <circle
       style="fill:#000000;fill-opacity:1;stroke-width:0.390095;stroke-linecap:round"
       id="circle6"
       cx="36.08395"
       cy="38.575405"
       r="0.29598609" />
    <circle
       style="fill:#000000;fill-opacity:1;stroke-width:0.390095;stroke-linecap:round"
       id="circle7"
       cx="37.159046"
       cy="35.877884"
       r="0.29598609" />
    <circle
       style="fill:#000000;fill-opacity:1;stroke-width:0.390095;stroke-linecap:round"
       id="circle8"
       cx="-66.074661"
       cy="35.636368"
       r="0.29598609"
       transform="scale(-1,1)" />
    <circle
       style="fill:#000000;fill-opacity:1;stroke-width:0.390095;stroke-linecap:round"
       id="circle9"
       cx="-64.04174"
       cy="37.884308"
       r="0.29598609"
       transform="scale(-1,1)" />
    <circle
       style="fill:#000000;fill-opacity:1;stroke-width:0.390095;stroke-linecap:round"
       id="circle10"
       cx="-62.96664"
       cy="35.186783"
       r="0.29598609"
       transform="scale(-1,1)" />
    <path
       style="fill:#000000;fill-opacity:1;stroke-width:0.761128;stroke-linecap:round"
       d="m 42.219019,40.84979 7.238274,-4.976311 5.906227,4.825514 -5.881096,-4.272592 z"
       id="path10" />
    <path
       style="fill:#4b47a8;fill-opacity:1;stroke-width:1.37464;stroke-linecap:round"
       d="m 77.631333,21.753704 c -1.21913,1.121719 -9.35904,-13.2542927 -8.14536,-13.9448197 3.71179,-2.1118314 11.62417,1.929912 12.00395,2.8762967 0.41477,1.03356 0.56716,6.99639 -3.85859,11.068523 z"
       id="path11"
       sodipodi:nodetypes="ssss" />
    <path
       id="path24"
       style="fill:#000000;fill-opacity:0.207031;stroke:none;stroke-width:0.0947154;stroke-linecap:round"
       d="m 79.492553,34.822735 c -11.97413,18.089226 -36.934994,22.832928 -54.221957,8.854262 5.239042,7.559484 14.640146,11.893173 25.316507,11.893173 14.33159,0 26.19716,-7.807004 28.90545,-20.747435 z"
       sodipodi:nodetypes="ccsc" />
    <ellipse
       style="fill:#1bd6c4;fill-opacity:1;stroke-width:0.853186;stroke-linecap:round"
       id="ellipse13"
       cx="39.494312"
       cy="53.241371"
       rx="4.8217416"
       ry="3.7300267" />
    <ellipse
       style="fill:#1bd6c4;fill-opacity:1;stroke-width:0.748845;stroke-linecap:round"
       id="ellipse14"
       cx="-63.858501"
       cy="51.707844"
       rx="4.2303958"
       ry="3.2751455"
       transform="scale(-1,1)" />
    <ellipse
       style="fill:#1bd6c4;fill-opacity:1;stroke-width:0.857105;stroke-linecap:round"
       id="ellipse15"
       cx="-57.765446"
       cy="54.104446"
       rx="4.6397891"
       ry="3.9119792"
       transform="scale(-1,1)" />
    <g
       id="g2"
       transform="matrix(1.1839443,0,0,1.1839443,-9.660666,-2.0186295)">
      <ellipse
         style="fill:#ecf991;fill-opacity:1;stroke:none;stroke-width:0.111071;stroke-linecap:round;stroke-dasharray:none;stroke-opacity:1"
         id="path17"
         cx="50.031582"
         cy="58.545746"
         rx="9.1283255"
         ry="5.6508684" />
      <ellipse
         style="fill:#ecf991;fill-opacity:1;stroke:none;stroke-width:0.0658199;stroke-linecap:round;stroke-dasharray:none;stroke-opacity:1"
         id="ellipse17"
         cx="49.989788"
         cy="65.555"
         rx="4.7397075"
         ry="2.3364167" />
      <path
         id="path18"
         style="fill:#cdd98d;fill-opacity:1;stroke-width:0.545934;stroke-linecap:round"
         d="m 53.942277,53.439983 c -0.256888,-0.07764 -0.475512,-0.129991 -0.768964,-0.199131 l 0.03952,10.604562 c 0.143617,-0.0424 0.482182,-0.114568 0.723589,-0.203008 z"
         sodipodi:nodetypes="ccccc" />
      <path
         id="path2"
         style="fill:#cdd98d;fill-opacity:1;stroke-width:0.552841;stroke-linecap:round"
         d="m 46.000631,53.477332 c 0.290052,-0.09003 0.400683,-0.119319 0.789373,-0.214938 l -4.95e-4,10.569442 c -0.30263,-0.07211 -0.47771,-0.126737 -0.788844,-0.216297 z"
         sodipodi:nodetypes="ccccc" />
    </g>
    <path
       style="fill:#ffffff;fill-opacity:1;stroke-width:0.955011;stroke-linecap:round"
       d="m 70.362563,66.755443 c -5.8405,3.194597 -19.111874,8.086558 -19.873221,4.003574 0.844141,-4.880777 13.28703,-13.594662 14.914161,-14.581596 7.48632,-0.770033 10.54705,6.506291 4.95906,10.578022 z"
       id="path15"
       sodipodi:nodetypes="cccc" />
    <path
       style="fill:#ffffff;fill-opacity:1;stroke-width:0.955011;stroke-linecap:round"
       d="m 28.978159,69.625479 c 5.840501,3.194597 20.443201,5.423917 21.204548,1.340933 -0.24665,-1.426111 -0.865276,-2.174702 -3.426087,-4.42259 -2.560812,-2.247889 -11.667695,-6.797803 -12.819393,-7.496365 -7.48632,-0.770033 -10.547049,6.50629 -4.959068,10.578022 z"
       id="path16"
       sodipodi:nodetypes="ccccc" />
    <path
       id="path23"
       style="fill:#000000;fill-opacity:0.207031;stroke:none;stroke-width:0.0947154;stroke-linecap:round"
       d="m 56.184034,27.936086 c -3.178169,2.435494 -7.694712,2.758478 -11.953742,3.249378 a 6.6460643,4.4567719 0 0 0 5.377899,1.848921 6.6460643,4.4567719 0 0 0 6.646203,-4.456499 6.6460643,4.4567719 0 0 0 -0.07036,-0.6418 z" />
    <path
       id="path25"
       style="fill:#000000;fill-opacity:0.220703;stroke:none;stroke-width:0.0947154;stroke-linecap:round"
       d="m 71.327803,72.576323 c -4.83402,8.117255 -9.495981,11.50429 -17.341426,14.144671 -7.990134,2.689076 -15.851692,0.649263 -23.913605,-0.779459 8.740604,10.572214 40.995031,7.716407 41.184061,-6.035606 0.29414,-2.685563 0.28255,-5.082698 0.071,-7.329606 z"
       sodipodi:nodetypes="csccc" />
  </g>
</svg>
